<svg xmlns="http://www.w3.org/2000/svg" viewBox="0 0 45.702 45.702" fill="none">
  <path fill="#33305e" d="M36.226 25.086h-.023V11.939h.307c1.18 0 2.137-.929 2.137-2.108v-7.65c0-1.18-.957-2.096-2.137-2.096h-5.018c-1.18 0-2.112.916-2.112 2.096v7.649c0 1.179.933 2.108 2.112 2.108h.33v13.146h-.045c-2.125 0-3.834 1.768-3.834 3.892v12.921c0 2.125 1.709 3.804 3.834 3.804h4.451c2.123 0 3.854-1.679 3.854-3.804v-12.92c0-2.126-1.731-3.894-3.856-3.894z"/>
  <path fill="#33305e" d="M11.494 18.006v24.691c0 1.67 1.338 3.005 3.008 3.005h3.179c1.67 0 3.007-1.335 3.007-3.005v-24.69c3.448-1.702 5.872-5.275 5.872-9.408 0-3.444-1.959-6.493-4.383-8.399-.277-.218-.654-.258-.97-.104-.318.155-.519.476-.519.829v5.102c0 1.63-1.32 2.896-2.952 2.896h-3.284c-1.632 0-2.958-1.265-2.958-2.896V.922c0-.354-.199-.675-.517-.83-.316-.154-.692-.113-.97.104C7.576 2.103 5.62 5.152 5.62 8.598c0 4.133 2.355 7.706 5.874 9.408z"/>
</svg>
